<svg xmlns="http://www.w3.org/2000/svg" width="20" height="20" viewBox="0 0 20 20"><defs><style>.a{fill:#222;}</style></defs><path class="a" d="M99.426,7.3H85.174A2.842,2.842,0,0,0,82.3,10.165h0V24.377a2.842,2.842,0,0,0,2.874,2.865h5.69V20.309H89.6V18.074h1.264v-.4a4.268,4.268,0,0,1,1.264-3.266,3.849,3.849,0,0,1,2.7-.974,5.973,5.973,0,0,1,1.609.172l-.115,2.35a4.57,4.57,0,0,0-.977-.115c-.977,0-1.437.8-1.437,1.719v.516h1.954v2.235H93.909V27.3h5.517a2.842,2.842,0,0,0,2.874-2.865V10.165A2.842,2.842,0,0,0,99.426,7.3Z" transform="translate(-82.3 -7.3)"/></svg>