<svg xmlns="http://www.w3.org/2000/svg" width="22" height="19.849" viewBox="0 0 22 19.849"><defs><style>.a{fill:#707070;}</style></defs><path class="a" d="M-868.211-399.851a2.212,2.212,0,0,1-1.291-.408c-1.556-1.081-7.668-6.046-9.29-10.614a7.7,7.7,0,0,1-.331-1.225v-.011c0-.033-.011-.055-.011-.088v-.022a6.356,6.356,0,0,1-.066-.9v-.077a6.415,6.415,0,0,1,6.311-6.5,6.268,6.268,0,0,1,4.689,2.151,6.268,6.268,0,0,1,4.689-2.151,6.408,6.408,0,0,1,6.311,6.5v.077a6.484,6.484,0,0,1-.066.9v.022c0,.033-.011.055-.011.088v.022a6.907,6.907,0,0,1-.32,1.225c-1.622,4.568-7.745,9.533-9.29,10.614A2.568,2.568,0,0,1-868.211-399.851Zm-8.749-12.677.011.066a4.252,4.252,0,0,0,.221.839c0,.011,0,.011.011.022,1.28,3.619,6.355,8.076,8.484,9.544a.049.049,0,0,0,.055,0c2.118-1.478,7.193-5.925,8.484-9.544a.011.011,0,0,1,.011-.011,4.149,4.149,0,0,0,.221-.827l.011-.077v-.011a2.853,2.853,0,0,0,.044-.53v-.121a4.213,4.213,0,0,0-4.1-4.3,4.074,4.074,0,0,0-3.685,2.405,1.1,1.1,0,0,1-1,.629,1.111,1.111,0,0,1-1-.629,4.074,4.074,0,0,0-3.685-2.405,4.21,4.21,0,0,0-4.1,4.292v.121a4.677,4.677,0,0,0,.044.53c-.011,0-.011,0-.011.011Z" transform="translate(879.2 419.7)"/></svg>