<svg xmlns="http://www.w3.org/2000/svg" width="22" height="18" viewBox="0 0 22 18"><g transform="translate(-306 -21)"><path d="M41.592-207.9H21.808a1.061,1.061,0,0,1-1.108-1,1.061,1.061,0,0,1,1.108-1H41.592a1.061,1.061,0,0,1,1.108,1A1.061,1.061,0,0,1,41.592-207.9Z" transform="translate(285.3 230.9)"/><path d="M41.592-207.9H21.808a1.061,1.061,0,0,1-1.108-1,1.061,1.061,0,0,1,1.108-1H41.592a1.061,1.061,0,0,1,1.108,1A1.061,1.061,0,0,1,41.592-207.9Z" transform="translate(285.3 238.9)"/><path d="M41.592-207.9H21.808a1.061,1.061,0,0,1-1.108-1,1.061,1.061,0,0,1,1.108-1H41.592a1.061,1.061,0,0,1,1.108,1A1.061,1.061,0,0,1,41.592-207.9Z" transform="translate(285.3 246.9)"/></g></svg>