<svg xmlns="http://www.w3.org/2000/svg" width="15.18" height="14.011" viewBox="0 0 15.18 14.011"><defs><style>.a{fill:#e16868;}</style></defs><path class="a" d="M-871.618-405.689a1.5,1.5,0,0,1-.891-.288c-1.073-.763-5.291-4.268-6.41-7.492a5.547,5.547,0,0,1-.228-.864v-.008c0-.023-.008-.039-.008-.062v-.016a4.587,4.587,0,0,1-.046-.639v-.055a4.481,4.481,0,0,1,4.354-4.587,4.285,4.285,0,0,1,3.235,1.519,4.285,4.285,0,0,1,3.235-1.519,4.476,4.476,0,0,1,4.354,4.587v.055a4.672,4.672,0,0,1-.046.639v.016c0,.023-.008.039-.008.062v.016a4.963,4.963,0,0,1-.221.864c-1.119,3.224-5.344,6.729-6.41,7.492A1.743,1.743,0,0,1-871.618-405.689Zm-6.037-8.948.008.047a3.062,3.062,0,0,0,.152.592c0,.008,0,.008.008.016.883,2.554,4.385,5.7,5.854,6.737a.033.033,0,0,0,.038,0c1.462-1.044,4.964-4.182,5.854-6.737a.008.008,0,0,1,.008-.008,2.981,2.981,0,0,0,.152-.584l.008-.055v-.008a2.065,2.065,0,0,0,.031-.374v-.086a2.944,2.944,0,0,0-2.832-3.037,2.809,2.809,0,0,0-2.543,1.7.757.757,0,0,1-.693.444.765.765,0,0,1-.693-.444,2.809,2.809,0,0,0-2.543-1.7,2.942,2.942,0,0,0-2.832,3.029v.086a3.363,3.363,0,0,0,.031.374c-.008,0-.008,0-.008.008Z" transform="translate(879.2 419.7)"/></svg>