<svg xmlns="http://www.w3.org/2000/svg" width="20" height="19.997" viewBox="0 0 20 19.997"><defs><style>.a{fill:#222;}</style></defs><path class="a" d="M53.625,7.3H39.373A2.845,2.845,0,0,0,36.5,10.173h0V24.424A2.845,2.845,0,0,0,39.373,27.3H53.625A2.845,2.845,0,0,0,56.5,24.424V10.173A2.81,2.81,0,0,0,53.625,7.3ZM46.5,22.758A5.459,5.459,0,1,1,51.958,17.3h0A5.385,5.385,0,0,1,46.5,22.758Zm6.953-10.516A1.839,1.839,0,1,1,55.291,10.4v.057A1.88,1.88,0,0,1,53.452,12.242Z" transform="translate(-36.5 -7.3)"/></svg>