<svg xmlns="http://www.w3.org/2000/svg" width="20" height="20" viewBox="0 0 20 20"><defs><style>.a{fill:#222;}</style></defs><path class="a" d="M145.226,7.3H130.974a2.846,2.846,0,0,0-2.874,2.874h0V24.426a2.846,2.846,0,0,0,2.874,2.874h14.253a2.846,2.846,0,0,0,2.874-2.874v-14.2A2.9,2.9,0,0,0,145.226,7.3Zm-9.713,15.23a.152.152,0,0,1-.172.172H133.1a.152.152,0,0,1-.172-.172V15.289a.152.152,0,0,1,.172-.172h2.241a.152.152,0,0,1,.172.172Zm-1.322-7.989a1.184,1.184,0,0,1-.977-.4,1.4,1.4,0,0,1,0-1.839,1.532,1.532,0,0,1,1.034-.4,1.283,1.283,0,0,1,1.379,1.322h0A1.33,1.33,0,0,1,134.192,14.541Zm9.138,7.989a.152.152,0,0,1-.172.172h-2.241a.152.152,0,0,1-.172-.172V18.507c0-.92-.345-1.379-.977-1.379a1.02,1.02,0,0,0-.977.747h0a1.275,1.275,0,0,0-.057.517v4.2a.152.152,0,0,1-.172.172h-2.241a.152.152,0,0,1-.172-.172V17.645c0-.92-.057-1.667-.057-2.3,0-.057,0-.115.057-.115.057-.057.057-.057.115-.057h1.954a.152.152,0,0,1,.172.172l.057.632a2.871,2.871,0,0,1,2.184-.92,2.774,2.774,0,0,1,2.011.8,3.648,3.648,0,0,1,.8,2.471v4.2Z" transform="translate(-128.1 -7.3)"/></svg>