<svg xmlns="http://www.w3.org/2000/svg" width="19.944" height="20.001" viewBox="0 0 19.944 20.001"><defs><style>.a{fill:#652e95;}</style></defs><g transform="translate(-1423.946 -23)"><path class="a" d="M-860.166-1427.36a1.067,1.067,0,0,0-.8-.339h-14.375l-.429-1.947a.971.971,0,0,0-.968-.694c-.879-.008-2.116,0-2.176,0a.92.92,0,0,0-.988.855.929.929,0,0,0,1,.838h1.328l1.288,5.859a.569.569,0,0,0,.07.178l.519,2.371a.915.915,0,0,0-.12.212l-.789,2.151a.754.754,0,0,0,.15.753,1.065,1.065,0,0,0,.809.347h11.929a.935.935,0,0,0,1-.847.935.935,0,0,0-1-.847h-10.572l.329-.889h10.781a.983.983,0,0,0,.958-.618l2.236-6.655A.769.769,0,0,0-860.166-1427.36Zm-3.783,6.316h-9.893l-1.088-4.962h12.648Z" transform="translate(2303.848 1453.344)"/><ellipse class="a" cx="2.427" cy="2.406" rx="2.427" ry="2.406" transform="translate(1427.51 38.188)"/><ellipse class="a" cx="2.411" cy="2.39" rx="2.411" ry="2.39" transform="translate(1435.511 38.188)"/></g></svg>