<svg xmlns="http://www.w3.org/2000/svg" width="20" height="20.001" viewBox="0 0 20 20.001"><defs><style>.a{fill:#222;}</style></defs><path class="a" d="M17,20H3a3,3,0,0,1-3-3V3A3,3,0,0,1,3,0H17a3,3,0,0,1,3,3V17A3,3,0,0,1,17,20ZM9.331,12.82h0c0,.014-.35,1.386-.424,1.649a4.978,4.978,0,0,1-.6,1.287,5.919,5.919,0,1,0-.716-.254,5.083,5.083,0,0,1,.1-1.379c.114-.485.774-3.271.774-3.271a2.35,2.35,0,0,1-.193-.95c0-.871.509-1.553,1.158-1.553a.8.8,0,0,1,.808.9,5.035,5.035,0,0,1-.29,1.292c-.085.276-.173.562-.238.839a.917.917,0,0,0,.164.795.987.987,0,0,0,.783.36c1.084,0,1.9-1.371,1.9-3.19a2.252,2.252,0,0,0-2.495-2.3,2.85,2.85,0,0,0-2.95,2.874A1.746,1.746,0,0,0,7.509,11.1a.293.293,0,0,1,.088.332c-.028.1-.087.34-.116.455l-.006.026a.2.2,0,0,1-.2.171.281.281,0,0,1-.105-.022A2.306,2.306,0,0,1,5.944,9.766,3.629,3.629,0,0,1,7.02,7.251a4.352,4.352,0,0,1,3.212-1.235,3.588,3.588,0,0,1,3.8,3.439,4.812,4.812,0,0,1-.894,2.939A2.913,2.913,0,0,1,10.8,13.568a1.721,1.721,0,0,1-1.464-.748Z"/></svg>