<svg xmlns="http://www.w3.org/2000/svg" width="20" height="20.001" viewBox="0 0 20 20.001"><defs><style>.a{fill:#222;}</style></defs><path class="a" d="M17,20H3a3,3,0,0,1-3-3V3A3,3,0,0,1,3,0H17a3,3,0,0,1,3,3V17A3,3,0,0,1,17,20ZM6.578,15a.3.3,0,0,1,.164.049A6.028,6.028,0,1,0,5.059,13.4a.3.3,0,0,1,.038.257L4.487,15.7l2-.689A.3.3,0,0,1,6.578,15Zm5.334-1.543a2.441,2.441,0,0,1-.492-.054,6.5,6.5,0,0,1-3-1.88A6.725,6.725,0,0,1,6.6,8.486,1.758,1.758,0,0,1,6.718,7.3a1.522,1.522,0,0,1,.824-.68l1.093,1.8-.455.45a.3.3,0,0,0-.047.362A5.878,5.878,0,0,0,10.8,11.875a.3.3,0,0,0,.333-.061l.483-.482,1.762,1.1a1.677,1.677,0,0,1-.741.853A1.554,1.554,0,0,1,11.912,13.453Z"/></svg>